<?xml version="1.0" encoding="UTF-8"?>
<svg version="1.1" xmlns="http://www.w3.org/2000/svg" width="524" height="476">
<path d="M0 0 C0 0.66 0 1.32 0 2 C1.04994141 2.33064453 1.04994141 2.33064453 2.12109375 2.66796875 C5.67895263 4.31414226 8.24961041 6.6482159 11.0625 9.3125 C11.57876953 9.78623047 12.09503906 10.25996094 12.62695312 10.74804688 C15.72891051 13.6366212 18.35863743 16.67623641 21 20 C21.66 20.33 22.32 20.66 23 21 C24.03013277 22.64821244 25.02065076 24.32111559 26 26 C26.89521856 27.27126648 27.79113468 28.54204184 28.6875 29.8125 C31.47514603 33.96975873 33.77082119 38.27841127 36 42.75 C36.34321289 43.43521729 36.68642578 44.12043457 37.04003906 44.82641602 C38.65761436 48.10427614 40.18488544 51.38071431 41.52734375 54.78125 C44.29092961 62.07482906 44.29092961 62.07482906 50.3125 66.5 C51.86989638 67.015677 53.43250628 67.51588257 55 68 C70.72265043 74.97819292 84.1469965 89.61386932 93 104 C93.639375 104.9075 94.27875 105.815 94.9375 106.75 C96.31729539 109.67191966 96.02913039 110.96978275 95 114 C93.12890625 115.1875 93.12890625 115.1875 90.5625 116 C89.57121094 116.3196875 88.57992188 116.639375 87.55859375 116.96875 C81.86440025 118.61887852 76.15903527 120.22079993 70.4375 121.7734375 C66.63989151 122.81047674 62.88022064 123.94246658 59.125 125.125 C43.48932927 130 43.48932927 130 37 130 C37.28657394 131.54262145 37.57953877 133.08405606 37.875 134.625 C38.03742188 135.48351562 38.19984375 136.34203125 38.3671875 137.2265625 C38.96329255 140.04984189 38.96329255 140.04984189 39.9765625 142.9140625 C41.05684605 146.17140604 41.80083887 149.39098674 42.5 152.75 C42.7371875 153.87921875 42.974375 155.0084375 43.21875 156.171875 C43.60546875 158.06679688 43.60546875 158.06679688 44 160 C44.17426514 160.68626465 44.34853027 161.3725293 44.52807617 162.07958984 C46.31503894 169.61566798 46.33783406 177.13047286 46.31567383 184.82910156 C46.31253441 187.10010791 46.33597069 189.36978066 46.36132812 191.640625 C46.4049608 201.75531017 45.21417138 211.14074999 43 221 C42.82154541 221.83321777 42.64309082 222.66643555 42.45922852 223.52490234 C38.56052512 241.1903091 32.19986606 259.21537018 22.09765625 274.3515625 C20.23933449 277.14235177 18.64315382 280.07883766 17 283 C16.34 283 15.68 283 15 283 C14.690625 283.99 14.690625 283.99 14.375 285 C12.79861116 288.43939384 10.75693951 291.10595107 8.4453125 294.08203125 C6.88936578 296.06775646 6.88936578 296.06775646 5.4375 298.6875 C2.85627477 302.8399058 -0.78109243 305.83302063 -4.5 308.9375 C-6.83199076 310.89515819 -8.7994669 312.8623643 -10.6875 315.25 C-12.90797163 317.89056086 -14.0117845 318.59927398 -17 320 C-18.14260947 321.14260947 -19.28221676 322.28846697 -20.40234375 323.453125 C-29.95144036 332.6987051 -41.29857558 339.8530492 -53 346 C-54.32120923 346.71579522 -55.6414668 347.43334884 -56.9609375 348.15234375 C-58.3280377 348.89339024 -59.69522461 349.6342768 -61.0625 350.375 C-61.71822998 350.73327881 -62.37395996 351.09155762 -63.04956055 351.46069336 C-67.77303038 354 -67.77303038 354 -70 354 C-67.224709 359.41550147 -64.36096493 364.0870542 -60.13671875 368.4921875 C-59 370 -59 370 -59 373 C-58.34 373 -57.68 373 -57 373 C-55.25296666 375.26051949 -53.61209579 377.52134015 -52 379.875 C-48.7705083 384.65503106 -48.7705083 384.65503106 -45 389 C-45 389.99 -45 390.98 -45 392 C-44.34 392 -43.68 392 -43 392 C-41.43555543 394.05426118 -39.98635471 396.10156656 -38.5625 398.25 C-37.04520346 400.50243043 -35.52334374 402.7516424 -34 405 C-33.63616211 405.71921631 -33.27232422 406.43843262 -32.89746094 407.17944336 C-30.37640686 409.59831884 -28.31076288 409.43900518 -24.920578 409.42610168 C-23.69725517 409.39500557 -23.69725517 409.39500557 -22.44921875 409.36328125 C-20.69986968 409.36314659 -18.95052039 409.36382533 -17.20117188 409.36523438 C-14.46075793 409.3445419 -11.72126388 409.31310004 -8.98120117 409.2644043 C3.2529192 409.08263767 12.73143648 409.76485878 23 417 C26.45978233 420.427674 28.83634871 424.25643431 29.1328125 429.2265625 C29.12894531 430.41378906 29.12894531 430.41378906 29.125 431.625 C29.12757813 432.42164063 29.13015625 433.21828125 29.1328125 434.0390625 C29 436 29 436 28 437 C25.70381661 437.17893692 23.40206945 437.28664555 21.1003418 437.36743164 C20.37819992 437.39327835 19.65605804 437.41912506 18.91203308 437.445755 C12.21377061 437.67225858 5.51326542 437.80576346 -1.18789387 437.91112614 C-5.687628 437.98317934 -10.1820074 438.08540078 -14.67895508 438.26196289 C-46.21282396 439.46987215 -46.21282396 439.46987215 -52.93041992 433.58251953 C-55.69263288 430.34282946 -57.53058352 426.92233138 -59.11894226 422.98880005 C-60.51223232 419.84374473 -62.53778273 417.42514591 -64.6875 414.75 C-67.88766892 410.48310811 -67.88766892 410.48310811 -68.51953125 407.765625 C-68.75736328 406.89164062 -68.75736328 406.89164062 -69 406 C-69.99 405.67 -70.98 405.34 -72 405 C-76 399.62857143 -76 399.62857143 -76 397 C-76.66 397 -77.32 397 -78 397 C-79.04272497 395.3597249 -80.03344425 393.68628223 -81 392 C-83.08590719 389.11642275 -85.21829086 386.271501 -87.35546875 383.42578125 C-89 381 -89 381 -89 379 C-89.66 379 -90.32 379 -91 379 C-92.85157222 376.35489683 -94.60741126 373.76550817 -96.08178711 370.890625 C-97.52205187 368.43996686 -98.766313 366.7750451 -101 365 C-105.36375896 364.26998871 -109.4554455 364.89552884 -113.8125 365.5 C-116.23124594 365.76269134 -118.6505266 366.02050501 -121.0703125 366.2734375 C-122.24883789 366.40588867 -123.42736328 366.53833984 -124.64160156 366.67480469 C-129.16819584 367.11311696 -133.64363914 367.19290079 -138.1875 367.125 C-138.89302002 367.11662109 -139.59854004 367.10824219 -140.32543945 367.09960938 C-141.88379575 367.07564388 -143.44196146 367.03955528 -145 367 C-140.73086376 378.02649686 -136.41108395 389.02949439 -132 400 C-131.20791054 401.9789975 -130.41618801 403.95814194 -129.625 405.9375 C-129.08335918 407.29167701 -128.54169736 408.64584561 -128 410 C-126.15148437 410.00386719 -126.15148437 410.00386719 -124.265625 410.0078125 C-113.09904681 410.19985279 -103.78890876 411.05136875 -95.01171875 418.7421875 C-91.8765389 422.10932576 -89.8587338 425.4200864 -89 430 C-89.33 432.31 -89.66 434.62 -90 437 C-129.6 437 -169.2 437 -210 437 C-210 423.45926966 -210 423.45926966 -206.484375 419.390625 C-199.10943027 412.48146626 -190.44508887 410.01002665 -180.60546875 409.68359375 C-179.40341797 409.64169922 -178.20136719 409.59980469 -176.96289062 409.55664062 C-175.71701172 409.51732422 -174.47113281 409.47800781 -173.1875 409.4375 C-171.92228516 409.39431641 -170.65707031 409.35113281 -169.35351562 409.30664062 C-166.23578111 409.2007553 -163.11796965 409.09867595 -160 409 C-163.10675862 400.58719658 -166.27468612 392.22748804 -169.765625 383.96484375 C-176 368.99050633 -176 368.99050633 -176 366 C-176.88671387 365.97494385 -177.77342773 365.9498877 -178.68701172 365.92407227 C-182.02320616 365.82809955 -185.3592753 365.72892585 -188.6953125 365.62768555 C-190.13049691 365.58476505 -191.56571846 365.5430666 -193.00097656 365.50268555 C-195.081496 365.44392611 -197.16184575 365.38113649 -199.2421875 365.31640625 C-199.9176059 365.29647614 -200.59302429 365.27654602 -201.28890991 365.25601196 C-205.92380066 365.09788098 -210.45125882 364.66288733 -215.02539062 363.90600586 C-217.73610885 364.0350398 -218.73356933 365.12309516 -220.625 367 C-221.75269743 368.3310527 -222.87762768 369.66445399 -224 371 C-225.28915956 372.19240722 -226.60236711 373.35930393 -227.9375 374.5 C-228.93716797 375.36625 -228.93716797 375.36625 -229.95703125 376.25 C-231.32502824 377.42182152 -232.69748184 378.58845925 -234.07421875 379.75 C-237.92486112 383.03588149 -241.26768555 386.38905346 -244.48828125 390.2890625 C-247.02601787 393.16122953 -249.8624611 395.79240176 -253 398 C-253.66 398 -254.32 398 -255 398 C-255.66 399.32 -256.32 400.64 -257 402 C-257.66 402 -258.32 402 -259 402 C-259.33 402.99 -259.66 403.98 -260 405 C-260.639375 405.144375 -261.27875 405.28875 -261.9375 405.4375 C-262.618125 405.623125 -263.29875 405.80875 -264 406 C-264.24878906 406.57105469 -264.49757813 407.14210938 -264.75390625 407.73046875 C-266.50437861 410.91863314 -269.13541048 412.74443856 -272 414.875 C-272.58595947 415.31626221 -273.17191895 415.75752441 -273.77563477 416.2121582 C-278.65983767 419.84185009 -283.65475716 423.084413 -289 426 C-289.99902344 426.57492187 -290.99804688 427.14984375 -292.02734375 427.7421875 C-318.18117044 441.9635215 -351.67987813 441.2685782 -380 434 C-390.31895152 430.68104848 -390.31895152 430.68104848 -392 429 C-392.26721534 424.99176986 -392.07621899 422.43348836 -390 419 C-388.40625 417.4296875 -388.40625 417.4296875 -386.5 415.875 C-383.1647454 413.0593684 -380.06295172 410.11021949 -377 407 C-374.12442341 404.08946199 -371.24125906 401.27575978 -368.125 398.625 C-364.00487347 395.10537774 -360.24228128 391.27031417 -356.43774414 387.41821289 C-352.97496829 383.92900784 -349.40372694 380.63474111 -345.6640625 377.44140625 C-343.31951373 375.41056471 -341.16469853 373.22020362 -339 371 C-335.61435977 367.53238301 -332.24071657 364.14901053 -328.5 361.0625 C-325.20956079 358.3082261 -322.53055469 355.21309689 -319.7578125 351.94921875 C-317.60506966 349.56206613 -315.27101298 347.53586658 -312.7734375 345.51953125 C-310.38499693 343.47304803 -308.20604516 341.2399264 -306 339 C-306.72058594 339.18175781 -307.44117188 339.36351562 -308.18359375 339.55078125 C-319.48237431 342.19575389 -330.8965016 343.39516686 -342.41357422 344.68481445 C-344.39044717 344.92571902 -346.35872498 345.2381765 -348.3203125 345.58203125 C-351.53685598 346.08373701 -354.62159883 346.09569797 -357.875 346.0625 C-359.02742188 346.05347656 -360.17984375 346.04445313 -361.3671875 346.03515625 C-362.23601562 346.02355469 -363.10484375 346.01195312 -364 346 C-365.15625 343.828125 -365.15625 343.828125 -366 341 C-365.09375 338.421875 -365.09375 338.421875 -363.5 335.75 C-362.9328125 334.78835938 -362.365625 333.82671875 -361.78125 332.8359375 C-359.2664326 328.83208348 -356.68324778 324.89279471 -354 321 C-350.90047998 316.4355327 -347.8784634 311.89162192 -345.1875 307.0703125 C-340.46478987 298.83664023 -335.32414304 290.85457366 -330 283 C-327.15537453 278.76232749 -324.37393168 274.48761456 -321.625 270.1875 C-319.04457977 266.15546108 -316.44088729 262.14714762 -313.75 258.1875 C-311.30887698 254.56627607 -309.22194989 250.81484075 -307.14453125 246.9765625 C-306 245 -306 245 -304.0625 242.625 C-300.7733302 238.43878389 -298.49890953 233.68714383 -296 229 C-294.68683774 226.65442052 -293.34341017 224.32857762 -292 222 C-289.8441805 218.24470152 -287.71199551 214.48143114 -285.625 210.6875 C-281.34779302 202.99374353 -276.81780536 195.59254717 -271.70703125 188.421875 C-270.14612537 186.20731746 -268.66035644 183.96109248 -267.1875 181.6875 C-264.53053185 177.68768579 -261.70587924 173.83047225 -258.8125 170 C-258.38412842 169.42338623 -257.95575684 168.84677246 -257.5144043 168.25268555 C-254.35151453 164.11717151 -254.35151453 164.11717151 -251 163 C-250.835 162.34 -250.67 161.68 -250.5 161 C-250.335 160.34 -250.17 159.68 -250 159 C-249.01 158.67 -248.02 158.34 -247 158 C-246.31035341 156.67840634 -245.64580126 155.34356353 -245 154 C-243.44921875 152.47265625 -243.44921875 152.47265625 -241.6875 151.0625 C-239.55534553 149.31046323 -237.61861645 147.60830878 -235.6875 145.625 C-217.99230635 128.34132248 -195.4871543 120.82944979 -171.0625 120.8125 C-170.13759766 120.80025391 -169.21269531 120.78800781 -168.25976562 120.77539062 C-151.1578464 120.73943705 -133.44236963 126.95772116 -120.9609375 138.9609375 C-119.4375 140.75 -119.4375 140.75 -118.30859375 142.296875 C-116.91840809 144.19213849 -116.91840809 144.19213849 -114.6015625 146.3203125 C-102.06304629 159.23536073 -98.61252369 175.43700991 -98.85546875 192.78515625 C-99.30633096 209.29844293 -106.98714544 223.48071816 -116 237 C-116.66 237 -117.32 237 -118 237 C-118.0928125 237.8353125 -118.0928125 237.8353125 -118.1875 238.6875 C-119.3476371 241.98942866 -121.45559795 243.62907991 -124 246 C-125.2065625 247.2375 -125.2065625 247.2375 -126.4375 248.5 C-128.29862259 250.31572935 -130.1127134 251.93776489 -132.125 253.5625 C-134.99362327 255.80109205 -134.99362327 255.80109205 -136.6875 258.3125 C-137.120625 258.869375 -137.55375 259.42625 -138 260 C-138.99 260 -139.98 260 -141 260 C-141.21398437 260.58007812 -141.42796875 261.16015625 -141.6484375 261.7578125 C-143.46778712 264.7760399 -145.65309342 266.00157028 -148.625 267.875 C-152.95387365 270.65895826 -157.12781849 273.50919162 -161.18359375 276.67578125 C-163.37424201 278.2728345 -165.66389007 279.62539873 -168 281 C-168.74378906 281.46019531 -169.48757812 281.92039062 -170.25390625 282.39453125 C-175.80386564 285.80338956 -181.46159291 288.79229318 -187.3359375 291.60546875 C-189.94157135 292.86615126 -189.94157135 292.86615126 -191.7878418 294.40429688 C-194.42079182 296.3035311 -197.10763605 297.57158225 -200.05859375 298.92578125 C-201.25033203 299.47556641 -202.44207031 300.02535156 -203.66992188 300.59179688 C-204.9257235 301.16549101 -206.18158308 301.73905831 -207.4375 302.3125 C-208.65840428 302.8739117 -209.87910917 303.43575725 -211.09960938 303.99804688 C-213.52693255 305.11558459 -215.95565485 306.22999383 -218.38549805 307.34204102 C-220.80601691 308.45232427 -223.22447488 309.56602563 -225.63989258 310.68725586 C-227.35728638 311.48401733 -227.35728638 311.48401733 -229.109375 312.296875 C-230.12870117 312.77092773 -231.14802734 313.24498047 -232.19824219 313.73339844 C-234.71424882 314.87081935 -237.24591873 315.92090086 -239.8125 316.9375 C-249.17525365 321.16256934 -255.72129311 329.85874745 -262.53515625 337.28125 C-264.86677398 339.81161338 -267.25065617 342.27013443 -269.6953125 344.69140625 C-272.83943169 347.80612474 -275.69540377 351.09033819 -278.51953125 354.49609375 C-279.00808594 354.99238281 -279.49664062 355.48867188 -280 356 C-280.66 356 -281.32 356 -282 356 C-282.226875 356.556875 -282.45375 357.11375 -282.6875 357.6875 C-284.37550036 360.66159588 -286.46676517 362.72008865 -289 365 C-289.66 365 -290.32 365 -291 365 C-291.268125 365.639375 -291.53625 366.27875 -291.8125 366.9375 C-293 369 -293 369 -296 370 C-296.70314956 371.31445917 -297.36399766 372.65177033 -298 374 C-301.97100506 379.02081099 -306.34126273 383.42561416 -311.28515625 387.47265625 C-313.21047206 389.18745917 -314.83204691 391.0348615 -316.5 393 C-319.24976524 396.23792581 -322.1482014 398.98111872 -325.421875 401.6796875 C-327.40343594 403.33752809 -329.21023478 405.13864417 -331 407 C-319.04797234 404.87907651 -308.16391447 401.34645737 -298 394.625 C-297.38987061 394.22651855 -296.77974121 393.82803711 -296.15112305 393.41748047 C-289.87671107 389.30050027 -284.0769062 385.36536616 -279 379.8125 C-277 378 -277 378 -274 378 C-273.76539063 377.42894531 -273.53078125 376.85789062 -273.2890625 376.26953125 C-271.69927941 373.4705495 -269.8001626 371.8010705 -267.375 369.6875 C-266.47136719 368.8934375 -265.56773437 368.099375 -264.63671875 367.28125 C-263.76660156 366.5284375 -262.89648438 365.775625 -262 365 C-260.72853589 363.89655974 -259.45765168 362.79245072 -258.1875 361.6875 C-257.55328125 361.13578125 -256.9190625 360.5840625 -256.265625 360.015625 C-252.70320449 356.84629917 -249.21982516 353.59198978 -245.7253418 350.34814453 C-242.86160155 347.696238 -239.98245469 345.0815974 -237 342.5625 C-233.71699382 339.75826556 -230.48997243 336.88437689 -227.8046875 333.48828125 C-225.1608013 331.30793354 -222.12365077 330.73894488 -218.875 329.875 C-210.28637528 327.39351493 -202.87426743 323.47036022 -195.09375 319.14208984 C-191.77619042 317.33244156 -188.3903516 315.66800282 -185 314 C-171.536807 307.30998737 -158.50380864 300.37322909 -146 292 C-145.00226563 291.34386719 -144.00453125 290.68773437 -142.9765625 290.01171875 C-136.34438025 285.52933836 -129.8787866 280.73643953 -123.875 275.4375 C-121 273 -121 273 -119 273 C-118.731875 272.360625 -118.46375 271.72125 -118.1875 271.0625 C-117 269 -117 269 -114 268 C-112.79117904 265.99983534 -112.79117904 265.99983534 -112 264 C-111.34 264 -110.68 264 -110 264 C-109.731875 263.360625 -109.46375 262.72125 -109.1875 262.0625 C-108 260 -108 260 -105 259 C-103.93372586 257.13355755 -103.93372586 257.13355755 -103 255 C-102.13133931 253.79248096 -101.23340622 252.60566323 -100.3125 251.4375 C-83.96949423 229.92517367 -74.0257613 205.04337598 -77.5 177.7265625 C-78.76248449 169.11802023 -80.8945266 161.73326594 -85 154 C-85.30679687 153.32066406 -85.61359375 152.64132813 -85.9296875 151.94140625 C-88.76081045 145.71544118 -92.8701796 140.41725429 -97 135 C-97.763125 133.96875 -98.52625 132.9375 -99.3125 131.875 C-105.04736601 125.74002706 -111.85636467 120.40777499 -119 116 C-119.71285156 115.54109375 -120.42570312 115.0821875 -121.16015625 114.609375 C-136.98453533 104.67838591 -153.93745354 100.73667416 -172.25 98.875 C-174.48996516 98.64314649 -176.72927911 98.40763077 -178.9677124 98.16140747 C-180.96609259 97.94198848 -182.96593144 97.73597513 -184.96582031 97.53076172 C-188 97 -188 97 -190 95 C-189.65745364 85.40870194 -185.51095147 77.46197137 -180.51171875 69.453125 C-179.04369647 67.07090796 -177.70064514 64.65116051 -176.375 62.1875 C-174.53213314 58.82663062 -172.45881912 55.95058295 -170 53 C-169.57074219 52.26910156 -169.14148438 51.53820312 -168.69921875 50.78515625 C-166.64385022 47.41624186 -164.33501847 44.31788438 -161.9375 41.1875 C-161.26750977 40.2912793 -161.26750977 40.2912793 -160.58398438 39.37695312 C-159.43864491 37.87893813 -158.22425256 36.43424443 -157 35 C-156.34 35 -155.68 35 -155 35 C-154.34 33.35 -153.68 31.7 -153 30 C-152.34 30 -151.68 30 -151 30 C-150.731875 29.360625 -150.46375 28.72125 -150.1875 28.0625 C-149 26 -149 26 -146 25 C-144.79117904 22.99983534 -144.79117904 22.99983534 -144 21 C-143.34 21 -142.68 21 -142 21 C-141.731875 20.360625 -141.46375 19.72125 -141.1875 19.0625 C-140 17 -140 17 -137 16 C-136.72542969 15.4121875 -136.45085937 14.824375 -136.16796875 14.21875 C-132.64539247 7.52703318 -122.57330289 2.46592334 -116 -1 C-115.16984375 -1.47050781 -114.3396875 -1.94101562 -113.484375 -2.42578125 C-78.14611215 -22.31589288 -34.69052079 -20.12906762 0 0 Z M-103.25 32.75 C-103.82395508 33.13889404 -104.39791016 33.52778809 -104.98925781 33.9284668 C-106.36625173 34.89773679 -107.6892124 35.94291323 -109 37 C-109 37.66 -109 38.32 -109 39 C-109.58910156 39.08765625 -110.17820312 39.1753125 -110.78515625 39.265625 C-113.59511452 40.19732192 -114.5800626 41.46788292 -116.4375 43.75 C-118.35566122 46.0820568 -120.27110097 48.26978495 -122.4140625 50.40234375 C-134.56403182 61.85409193 -134.56403182 61.85409193 -141 76 C-139.96166016 76.23783203 -139.96166016 76.23783203 -138.90234375 76.48046875 C-117.52206918 81.5790586 -93.50726188 89.67656644 -78 106 C-76.824375 107.1446875 -76.824375 107.1446875 -75.625 108.3125 C-70.2376909 113.82807836 -65.57427121 119.13739928 -62 126 C-61.34 126 -60.68 126 -60 126 C-59.73832031 126.85851562 -59.47664063 127.71703125 -59.20703125 128.6015625 C-57.97296511 132.07611764 -56.42730448 135.12685062 -54.6875 138.375 C-41.57380815 163.96160493 -40.24150954 195.90442544 -48.79663086 223.20458984 C-51.47480391 231.22992669 -54.62295287 238.76835692 -59 246 C-59.72434871 247.70592352 -60.44861187 249.41188351 -61.17211914 251.11816406 C-65.41598644 260.76479607 -71.09747584 268.79200845 -78.13842773 276.55688477 C-81.03670017 279.33712176 -81.03670017 279.33712176 -82 283 C-82.66 283 -83.32 283 -84 283 C-86.48817699 285.23935929 -88.58950855 287.15487055 -90.0625 290.1875 C-91.30151627 292.58293146 -92.57248176 292.89027738 -95 294 C-97.73219193 295.91859167 -97.73219193 295.91859167 -100 298 C-100 298.66 -100 299.32 -100 300 C-100.69609375 300.23203125 -101.3921875 300.4640625 -102.109375 300.703125 C-105.56828511 302.25496034 -108.31900263 304.39293159 -111.25 306.75 C-117.8966997 311.98088484 -124.73332387 316.66666102 -132 321 C-133.20269531 321.72509766 -133.20269531 321.72509766 -134.4296875 322.46484375 C-139.25445725 325.37049582 -144.09864355 328.22564729 -149 331 C-150.31281795 331.74944332 -151.62532312 332.49943482 -152.9375 333.25 C-154.4534375 334.11625 -154.4534375 334.11625 -156 335 C-156 335.33 -156 335.66 -156 336 C-146.75209973 336.24285857 -137.89852673 335.57995128 -128.75 334.25 C-127.47729248 334.06735596 -126.20458496 333.88471191 -124.89331055 333.6965332 C-103.19583051 330.48480333 -84.32189987 324.10977151 -64.87011719 313.96728516 C-61.59834411 312.2750182 -58.29749138 310.64146646 -55 309 C-55 308.34 -55 307.68 -55 307 C-54.2678125 306.72800781 -53.535625 306.45601563 -52.78125 306.17578125 C-46.27388948 303.42477631 -40.77308645 299.17084366 -36 294 C-32.43160954 290.33516655 -28.70579063 287.00498536 -24.76953125 283.74609375 C-22.93283785 281.93372742 -22.10519646 280.30289834 -21 278 C-20.34 277.67 -19.68 277.34 -19 277 C-17.99260254 275.33779419 -16.99477045 273.66979326 -16 272 C-14.96628125 270.66049533 -13.92400455 269.32756796 -12.875 268 C-10.60966423 265.03936315 -9.23905701 262.82491216 -9 259 C-8.34 259 -7.68 259 -7 259 C9.45762291 226.91688117 17.96065627 191.18013461 8.015625 155.46484375 C7.0898228 152.93313081 6.07147299 150.47262998 5 148 C4.50598849 146.52572481 4.02656916 145.04647255 3.5625 143.5625 C2.38764423 139.91392015 0.88519815 136.49439392 -0.6875 133 C-2.83106172 127.86587648 -4.2689783 123.52985665 -3 118 C-0.54059075 112.01941011 3.36471363 108.08619927 9 105 C12.08042404 103.97006888 15.1747009 103.40443835 18.375 102.875 C19.23899414 102.71741211 20.10298828 102.55982422 20.99316406 102.39746094 C23.65944796 101.91489767 26.32918994 101.45675862 29 101 C30.69561591 100.69700554 32.39094026 100.39237394 34.0859375 100.0859375 C38.054213 99.37189161 42.02567745 98.67954738 46 98 C44.78572595 94.35717785 43.39492145 93.87700337 40.08740234 92.19580078 C39.39855957 91.86306152 38.7097168 91.53032227 38 91.1875 C37.28666504 90.83929199 36.57333008 90.49108398 35.83837891 90.13232422 C19.63155901 82.40923148 4.10486498 78.40313632 -14 79 C-14.43699219 80.21236328 -14.43699219 80.21236328 -14.8828125 81.44921875 C-18.11254122 89.86885744 -20.39775386 93.52842337 -28.375 97.8125 C-34.55866783 99.83818429 -39.95012503 99.63038042 -46 97 C-51.58722525 94.09464287 -53.82375767 90.71403114 -56 85 C-57.64470287 79.34222212 -57.8292473 74.19962374 -55.375 68.8125 C-52.90894279 64.33836764 -49.59988363 61.29994182 -45 59 C-43.27472879 58.88082832 -41.54507102 58.82282674 -39.81591797 58.79467773 C-38.19446365 58.7647599 -38.19446365 58.7647599 -36.54025269 58.73423767 C-35.36939117 58.71752518 -34.19852966 58.70081268 -32.9921875 58.68359375 C-31.79643097 58.66281265 -30.60067444 58.64203156 -29.36868286 58.62062073 C-25.53751536 58.55507711 -21.70627762 58.49621782 -17.875 58.4375 C-15.28254473 58.39431937 -12.69009664 58.35070523 -10.09765625 58.30664062 C-3.73184573 58.19939081 2.63403513 58.0976334 9 58 C8.28457031 56.824375 8.28457031 56.824375 7.5546875 55.625 C6 53 6 53 5.125 51 C2.39161756 46.14065345 -2.61996573 42.43318299 -6.6875 38.6875 C-7.64011719 37.80449219 -8.59273437 36.92148438 -9.57421875 36.01171875 C-11.73134492 33.78721541 -11.73134492 33.78721541 -14 34 C-14 33.34 -14 32.68 -14 32 C-15.93864382 30.53577779 -15.93864382 30.53577779 -18.4375 29.125 C-19.26121094 28.63257813 -20.08492187 28.14015625 -20.93359375 27.6328125 C-28.23405782 23.74543163 -35.09527097 21.20866703 -43.25 19.75 C-44.17458008 19.58306641 -45.09916016 19.41613281 -46.05175781 19.24414062 C-67.54125075 15.56108657 -85.35664108 20.62547168 -103.25 32.75 Z M-205 165 C-205 165.66 -205 166.32 -205 167 C-205.68191406 167.20238281 -206.36382812 167.40476563 -207.06640625 167.61328125 C-211.03506254 169.48927723 -213.78331693 172.17591724 -216.9375 175.1875 C-217.53240234 175.73986328 -218.12730469 176.29222656 -218.74023438 176.86132812 C-222.74243424 180.62733259 -226.79247625 184.51800249 -230 189 C-230 189.66 -230 190.32 -230 191 C-230.66 191 -231.32 191 -232 191 C-232.268125 191.598125 -232.53625 192.19625 -232.8125 192.8125 C-234 195 -234 195 -235.34375 196.33203125 C-243.63528219 204.68222994 -249.30305485 215.80102161 -255.29296875 225.84375 C-256.07021947 227.14588887 -256.84756305 228.44797231 -257.625 229.75 C-258.0055957 230.38873047 -258.38619141 231.02746094 -258.77832031 231.68554688 C-260.82703269 235.10659396 -262.93550495 238.45726573 -265.1875 241.75 C-267.91268176 245.74793148 -270.16577916 249.93152217 -272.4453125 254.1953125 C-274.50102302 257.90385559 -276.78673066 261.43765748 -279.08984375 264.99609375 C-281.25235664 268.39685533 -283.31708142 271.84788605 -285.375 275.3125 C-289.1316202 281.62607946 -293.04949492 287.81804057 -297.0546875 293.9765625 C-298.01761719 295.47316406 -298.01761719 295.47316406 -299 297 C-299.60070312 297.91523438 -300.20140625 298.83046875 -300.8203125 299.7734375 C-301.40425781 300.87558594 -301.40425781 300.87558594 -302 302 C-301.67 302.66 -301.34 303.32 -301 304 C-300.05125 303.566875 -299.1025 303.13375 -298.125 302.6875 C-295.23639804 301.44637728 -292.35568762 300.4700217 -289.3359375 299.59765625 C-284.33816444 298.11993831 -279.41544368 296.48023222 -274.5 294.75 C-273.64269287 294.44843994 -272.78538574 294.14687988 -271.90209961 293.83618164 C-254.42667453 287.64050975 -237.67415312 280.4370231 -221.125 272.07421875 C-218.36433459 270.68010896 -215.59383083 269.30942742 -212.8125 267.95703125 C-205.79622381 264.53147644 -199.10336389 260.9699203 -192.58203125 256.6484375 C-189.91090204 254.94311749 -187.18271846 253.46793579 -184.375 252 C-179.869003 249.59594454 -175.96978969 246.82711732 -172.015625 243.60546875 C-170.21032174 242.16752371 -168.38924261 240.91417935 -166.4375 239.6875 C-165.633125 239.130625 -164.82875 238.57375 -164 238 C-164 237.34 -164 236.68 -164 236 C-163.443125 235.938125 -162.88625 235.87625 -162.3125 235.8125 C-157.16515541 234.00397352 -153.81054526 228.67177274 -150.4296875 224.55078125 C-149 223 -149 223 -146 221 C-146 220.01 -146 219.02 -146 218 C-145.34 218 -144.68 218 -144 218 C-137.65905758 209.61308848 -132.13126259 197.43812551 -133 186.6875 C-135.90961704 175.95828717 -140.31657519 167.73935266 -149.625 161.1875 C-167.7505893 150.91157536 -188.07546537 154.24288053 -205 165 Z " fill="#ffff" transform="translate(401,29)"/>
<path d="M0 0 C0.99 0.33 1.98 0.66 3 1 C1.9010409 2.0989591 0.80133123 3.1971721 -0.30078125 4.29296875 C-1.62072416 5.61898037 -2.92817379 6.95743321 -4.23046875 8.30078125 C-5.41576172 9.51314453 -5.41576172 9.51314453 -6.625 10.75 C-7.38039062 11.52859375 -8.13578125 12.3071875 -8.9140625 13.109375 C-11 15 -11 15 -14 16 C-14 15.34 -14 14.68 -14 14 C-13.34 14 -12.68 14 -12 14 C-11.731875 13.360625 -11.46375 12.72125 -11.1875 12.0625 C-10 10 -10 10 -7 9 C-5.79117904 6.99983534 -5.79117904 6.99983534 -5 5 C-4.34 5 -3.68 5 -3 5 C-2.690625 4.360625 -2.38125 3.72125 -2.0625 3.0625 C-1 1 -1 1 0 0 Z " fill="#626261" transform="translate(262,45)"/>
<path d="M0 0 C0 3.68681856 -1.20421182 4.59406646 -3.71484375 7.125 C-4.22144531 7.62 -4.72804688 8.115 -5.25 8.625 C-5.74113281 9.12773437 -6.23226563 9.63046875 -6.73828125 10.1484375 C-9.32257945 12.71206132 -11.28572559 14.62857256 -15 15 C-4.21052632 2.10526316 -4.21052632 2.10526316 0 0 Z " fill="#696968" transform="translate(31,430)"/>
<path d="M0 0 C0.33 0.99 0.66 1.98 1 3 C-2.82573388 6.92496041 -6.61997324 10.68179791 -11 14 C-11.66 13.67 -12.32 13.34 -13 13 C-11.71034824 11.62437146 -10.37310707 10.29233607 -9 9 C-8.34 9 -7.68 9 -7 9 C-6.773125 8.443125 -6.54625 7.88625 -6.3125 7.3125 C-4.64103234 4.36753316 -2.44723648 2.31843456 0 0 Z " fill="#70716F" transform="translate(376,311)"/>
<path d="M0 0 C0.99 0.33 1.98 0.66 3 1 C1.63016497 4.16115776 1.0109362 4.9927092 -2 7 C-2 5 -2 3 -2 1 C-1.34 0.67 -0.68 0.34 0 0 Z " fill="#3E3F3C" transform="translate(398,331)"/>
<path d="M0 0 C0.66 0 1.32 0 2 0 C0.79743762 3.42267755 -0.33473672 5.55684199 -3 8 C-3.66 8.99 -4.32 9.98 -5 11 C-4.46968862 6.4923533 -2.74778884 3.58045212 0 0 Z " fill="#565654" transform="translate(196,447)"/>
<path d="M0 0 C0.66 0.33 1.32 0.66 2 1 C-0.66666667 3.66666667 -3.33333333 6.33333333 -6 9 C-6.66 8.67 -7.32 8.34 -8 8 C-5.33333333 5.33333333 -2.66666667 2.66666667 0 0 Z " fill="#70716F" transform="translate(171,169)"/>
<path d="M0 0 C-1.28519565 2.86697492 -2.57129254 4.97607712 -5 7 C-5.66 7 -6.32 7 -7 7 C-3.86206897 0 -3.86206897 0 0 0 Z " fill="#5B5C5B" transform="translate(407,136)"/>
<path d="M0 0 C0.66 0.33 1.32 0.66 2 1 C-1.17320782 4.53586014 -3.16743695 6.58578031 -8 7 C-5.4837822 4.39391727 -2.94865641 2.10618315 0 0 Z " fill="#6B6B6A" transform="translate(235,267)"/>
<path d="M0 0 C-1.15173355 2.46800047 -2.04783565 4.04783565 -4 6 C-4.99 5.67 -5.98 5.34 -7 5 C-2.25 0 -2.25 0 0 0 Z " fill="#5E5D5B" transform="translate(354,89)"/>
</svg>
