<svg width="124" height="124" viewBox="0 0 124 124" fill="none" xmlns="http://www.w3.org/2000/svg">
<rect x="124" width="31" height="31" transform="rotate(90 124 0)" fill="white"/>
<rect x="124" width="31" height="31" transform="rotate(90 124 0)" fill="white"/>
<rect x="93" y="93" width="31" height="31" transform="rotate(90 93 93)" fill="white"/>
<rect x="31" y="31" width="31" height="31" transform="rotate(90 31 31)" fill="white"/>
<rect x="31" y="93" width="31" height="31" transform="rotate(90 31 93)" fill="white"/>
<rect x="93" y="31" width="31" height="31" transform="rotate(90 93 31)" fill="white"/>
<rect x="62" width="31" height="31" transform="rotate(90 62 0)" fill="white"/>
<rect x="93" y="62" width="31" height="31" transform="rotate(90 93 62)" fill="white"/>
<rect x="62" y="31" width="31" height="31" transform="rotate(90 62 31)" fill="white"/>
<rect x="62" y="62" width="31" height="31" transform="rotate(90 62 62)" fill="white"/>
<rect x="31" width="31" height="31" transform="rotate(90 31 0)" fill="white"/>
<rect x="124" y="62" width="31" height="31" transform="rotate(90 124 62)" fill="white"/>
</svg>
